<svg xmlns="http://www.w3.org/2000/svg" viewBox="0 0 340 80" width="340" height="80">
  <defs>
    <linearGradient id="bgG" x1="0%" y1="0%" x2="100%" y2="100%">
      <stop offset="0%" style="stop-color:#064e3b" />
      <stop offset="100%" style="stop-color:#047857" />
    </linearGradient>
  </defs>
  <!-- Circle icon -->
  <circle cx="36" cy="40" r="34" fill="url(#bgG)"/>
  <!-- Hat-house -->
  <g transform="translate(36,40) scale(0.36)">
    <path d="M0,-48 L60,20 L55,20 L55,68 L-55,68 L-55,20 L-60,20 Z" fill="#fff"/>
    <rect x="-15" y="32" width="30" height="36" rx="3" fill="#064e3b"/>
    <circle cx="9" cy="52" r="2.5" fill="#fff"/>
    <rect x="-45" y="25" width="22" height="18" rx="2" fill="#064e3b"/>
    <line x1="-34" y1="25" x2="-34" y2="43" stroke="#fff" stroke-width="1.5"/>
    <line x1="-45" y1="34" x2="-23" y2="34" stroke="#fff" stroke-width="1.5"/>
    <rect x="23" y="25" width="22" height="18" rx="2" fill="#064e3b"/>
    <line x1="34" y1="25" x2="34" y2="43" stroke="#fff" stroke-width="1.5"/>
    <line x1="23" y1="34" x2="45" y2="34" stroke="#fff" stroke-width="1.5"/>
    <rect x="-62" y="68" width="124" height="8" rx="2" fill="#fff"/>
    <!-- Feather -->
    <path d="M0,-48 C8,-62 28,-72 55,-68 C68,-65 75,-58 72,-50 C60,-46 40,-52 20,-56 C8,-58 2,-52 0,-48Z" fill="#fff" opacity="0.9"/>
    <!-- Chimney -->
    <rect x="30" y="-28" width="14" height="28" rx="2" fill="#fff"/>
    <rect x="27" y="-32" width="20" height="6" rx="2" fill="#fff"/>
  </g>
  <!-- Text -->
  <text x="82" y="35" font-family="Georgia, 'Times New Roman', serif" font-size="27" font-weight="700" fill="#0f172a" letter-spacing="0.5">Peterpan</text>
  <text x="82" y="55" font-family="Georgia, 'Times New Roman', serif" font-size="19" font-weight="700" fill="#047857" letter-spacing="0.5">Corp.</text>
  <text x="83" y="69" font-family="'Helvetica Neue', Arial, sans-serif" font-size="8" fill="#64748b" letter-spacing="2">NONPROFIT &#8226; AFFORDABLE HOUSING &#8226; KANSAS</text>
</svg>
